<svg width="327" height="437" viewBox="0 0 327 437" fill="none" xmlns="http://www.w3.org/2000/svg">
<g clip-path="url(#clip0_130_4156)">
<rect width="327" height="437" rx="16" fill="url(#paint0_linear_130_4156)"/>
<path d="M-6.5 115.5C43.3333 118.167 164.1 91.2 202.5 -6" stroke="#0C252B" stroke-width="8"/>
<path d="M72 -7C112.833 44.1667 226.2 125.3 353 40.5" stroke="#2D545E" stroke-width="8"/>
<path fill-rule="evenodd" clip-rule="evenodd" d="M82.6234 74.6635C83.5907 75.9222 82.8763 108.141 82.3976 124.114C82.4904 121.243 85.6006 108.849 97.3327 82.0075C112.034 48.372 113.321 57.2015 107.148 84.2198C102.836 103.097 85.0864 142.434 73.559 166.428L61.5591 196.653C70.7649 177.366 85.5412 151.651 98.3541 145.823C100.125 144.097 102.421 143.288 97.4338 153.855C95.9524 156.995 94.3218 160.968 92.5307 165.333L92.5304 165.334L92.5304 165.334C87.5333 177.511 81.2865 192.735 73.5409 201.384C84.0236 193.008 96.5909 185.615 109.832 183.021C110.365 183.883 108.131 188.361 94.9305 199.382C89.4427 203.964 84.3912 208.706 79.6143 213.19L79.6143 213.19L79.6141 213.19L79.614 213.191C70.0279 222.19 61.5474 230.151 52.8645 233.695C52.2394 233.95 51.6391 234.196 51.0639 234.432L51.0638 234.432C48.9298 235.307 47.1408 236.04 45.7106 236.573L37.7934 256.515C38.2036 256.067 38.6358 255.63 39.0908 255.205C39.2167 255.083 39.4074 254.893 39.6594 254.641L39.6612 254.639C43.266 251.032 59.3964 234.893 78.2153 230.12C88.7237 227.454 96.6665 223.606 102.099 220.974L102.099 220.974C107.078 218.562 109.948 217.171 110.751 218.65C112.432 221.741 82.6656 250.806 64.8699 258.51C51.093 264.474 37.0741 270.529 31.228 273.052L19.866 301.671L32.2853 291.434C47.2023 278.69 81.4125 253.397 98.917 254.177C101.279 253.444 103.692 253.765 94.4492 260.915C91.7036 263.039 88.4462 265.839 84.8681 268.914L84.8679 268.915C73.3901 278.78 58.6118 291.482 46.8364 293.822C37.1435 295.748 26.078 300.437 18.9822 303.897L5.5014 337.853L2.07513 336.492L17.75 297.01L4.97055 272.73C-2.70377 256.993 -18.0749 222.605 -18.165 210.946C-18.2551 199.287 -9.45258 218.66 -5.04009 229.804C-10.1649 213.535 -19.2848 181.342 -14.7663 182.716C-9.11816 184.434 10.4689 243.792 14.8352 271.156C16.1579 279.445 17.2192 284.967 17.9557 288.799C18.395 291.084 18.7187 292.768 18.9133 294.08L31.2675 262.962C24.4394 253.831 11.2619 234.433 4.02287 217.38C-5.65272 194.588 -16.3528 157.231 -0.581778 179.517C10.9189 195.769 24.1965 235.755 30.849 258.583C29.8515 253.949 28.0492 247.152 24.9668 237.489C16.5457 211.089 7.31193 149.269 11.5819 145.192C14.9979 141.931 21.3483 174.783 24.0965 191.616C23.0194 179.679 22.1572 158.417 27.3258 168.868C32.4945 179.32 34.2515 216.946 34.4839 234.453L32.3638 260.201L41.5437 237.078C41.5372 237.013 41.5398 236.941 41.5515 236.861C41.5067 236.788 41.4628 236.704 41.4202 236.608C41.0113 235.691 40.9732 232.206 40.9183 227.181C40.7907 215.499 40.5721 195.496 35.3915 180.103C27.9825 158.089 34.2768 140.216 35.9573 145.485C36.4718 147.098 36.8056 149.168 37.2346 151.829C38.2065 157.858 39.6676 166.92 44.8287 180.575C49.9587 194.148 48.5868 212.996 46.7376 223.996L55.0718 203.003C51.9679 191.096 48.4358 174.55 47.6884 160.454C46.3772 135.721 49.0956 96.9335 56.332 123.259C60.4953 138.405 60.6345 167.829 59.7447 191.233L71.2619 162.223C72.3396 152.88 73.2678 139.24 73.1908 121.368C73.0243 82.7313 81.4137 73.0894 82.6234 74.6635Z" fill="#2B6774"/>
<path fill-rule="evenodd" clip-rule="evenodd" d="M-182 325V407C-182 409.209 -180.209 411 -178 411H-96H434H516C518.209 411 520 409.209 520 407V325V316.245C520 316.11 519.89 316 519.755 316C519.63 316 519.525 315.904 519.512 315.78C514.911 272.619 478.382 239 434 239C407.912 239 384.538 250.616 368.766 268.957C367.353 270.601 364.914 270.926 363.1 269.739C352.726 262.948 340.324 259 327 259C312.43 259 298.963 263.721 288.045 271.717C286.199 273.068 283.589 272.768 282.099 271.032C269.995 256.932 252.041 248 232 248C207.095 248 185.412 261.795 174.174 282.16C172.981 284.323 170.188 285.098 168.051 283.859C158.332 278.225 147.043 275 135 275C117.303 275 101.232 281.965 89.3807 293.304C87.5272 295.077 84.4889 294.901 82.8525 292.926C70.7465 278.31 52.4606 269 32 269C14.7692 269 -0.919449 275.603 -12.6735 286.417C-14.817 288.389 -18.383 287.804 -19.7321 285.223C-34.0896 257.75 -62.8551 239 -96 239C-140.382 239 -176.911 272.619 -181.512 315.78C-181.525 315.904 -181.63 316 -181.755 316C-181.89 316 -182 316.11 -182 316.245V325Z" fill="#48889B"/>
<path fill-rule="evenodd" clip-rule="evenodd" d="M238.654 172.362C239.747 172.608 253.918 190.406 260.876 199.286C259.629 197.687 255.716 189.559 249.95 169.699C242.726 144.813 247.413 149.021 256.274 166.464C262.464 178.651 270.612 208.006 275.201 226.229L282.35 248.046C278.628 233.425 275.023 212.801 279.34 203.85C279.52 202.114 280.4 200.637 282.47 208.623C283.085 210.995 283.996 213.887 284.997 217.064L284.997 217.064C287.789 225.927 291.28 237.007 290.987 245.198C292.888 235.918 296.364 226.23 302.373 218.839C303.052 219.066 303.863 222.505 301.684 234.447C300.777 239.412 300.18 244.266 299.615 248.857L299.615 248.857C298.482 258.07 297.48 266.22 294.372 272.066C294.148 272.486 293.934 272.891 293.728 273.279L293.728 273.279L293.728 273.279C292.966 274.718 292.327 275.924 291.792 276.859L296.509 291.252C296.529 290.824 296.566 290.392 296.62 289.955C296.634 289.832 296.651 289.642 296.674 289.391C297 285.806 298.456 269.764 306.506 258.671C311.002 252.477 313.571 246.801 315.328 242.919C316.938 239.361 317.867 237.31 318.971 237.749C321.279 238.666 318.267 267.88 312.096 280.1C307.319 289.56 302.451 299.178 300.42 303.188L307.189 323.845L309.3 312.681C311.632 299.028 318.758 269.852 328.605 262.365C329.554 260.9 331.008 259.984 329.226 268.039C328.697 270.431 328.195 273.422 327.644 276.707C325.876 287.244 323.601 300.811 318.271 307.401C313.884 312.825 310.001 320.368 307.716 325.451L315.747 349.96L313.274 350.77L303.935 322.273L286.033 314.879C274.76 309.811 250.884 298.104 245.567 291.821C240.25 285.538 253.778 292.069 261.207 296.119C251.076 289.611 231.583 276.271 234.655 274.974C238.495 273.354 275.939 296.698 290.672 309.567C295.135 313.466 298.206 315.981 300.337 317.727C301.608 318.768 302.544 319.535 303.242 320.158L295.882 297.698C288.053 295.83 272.141 291.264 260.509 285.286C244.963 277.296 222.279 261.869 240.903 266.83C254.484 270.448 279.754 286.136 293.677 295.512C291.042 293.45 286.994 290.577 280.955 286.729C264.458 276.215 231.517 246.857 231.99 242.716C232.37 239.404 250.658 254.353 259.755 262.241C253.777 256.253 243.702 245.111 251.228 248.444C258.754 251.777 276.709 271.391 284.745 280.782L295.229 295.705L289.76 279.016C289.727 278.983 289.696 278.943 289.667 278.894C289.609 278.875 289.547 278.849 289.481 278.816C288.845 278.504 287.249 276.631 284.949 273.93C279.601 267.652 270.444 256.901 260.679 250.893C246.713 242.301 242.052 229.763 245.343 231.861C246.352 232.503 247.468 233.475 248.903 234.725L248.903 234.725C252.154 237.555 257.041 241.81 266.011 246.885C274.926 251.929 282.699 262.771 286.666 269.573L281.701 254.421C274.637 249.365 265.245 241.987 258.47 234.679C246.583 221.857 230.532 199.591 246.352 210.599C255.453 216.933 268.824 232.83 278.917 245.926L272.056 224.987C268.418 219.433 262.759 211.615 254.641 201.956C237.093 181.076 237.286 172.055 238.654 172.362Z" fill="#2B6774"/>
<path fill-rule="evenodd" clip-rule="evenodd" d="M251.637 129.778C252.178 129.5 264.26 131.979 270.242 133.255C269.167 133.023 264.714 131.002 255.412 124.743C243.755 116.9 247.168 117.021 256.918 121.199C263.73 124.117 277.325 133.499 285.569 139.486L296.127 146.077C289.496 141.288 280.826 133.96 279.511 128.736C278.982 127.95 278.835 127.03 282.472 129.633C283.552 130.406 284.936 131.293 286.457 132.266L286.457 132.267L286.458 132.267C290.7 134.984 296.004 138.38 298.729 141.89C296.294 137.368 294.373 132.129 294.304 126.965C294.665 126.824 296.198 127.972 299.443 133.699C300.791 136.079 302.23 138.307 303.591 140.413C306.322 144.64 308.738 148.379 309.477 151.892C309.53 152.144 309.582 152.386 309.631 152.618L309.631 152.62L309.631 152.62C309.814 153.484 309.968 154.208 310.07 154.783L317.036 159.132C316.895 158.947 316.76 158.754 316.631 158.553C316.594 158.497 316.535 158.412 316.458 158.3C315.347 156.695 310.376 149.514 309.87 142.101C309.587 137.961 308.683 134.706 308.064 132.48C307.498 130.44 307.171 129.264 307.783 129.063C309.062 128.642 317.964 141.844 319.644 149.073C320.945 154.67 322.263 160.364 322.812 162.738L332.809 168.979L329.806 163.601C326.031 157.11 318.854 142.494 320.348 135.956C320.234 135.016 320.52 134.13 322.579 138.1C323.19 139.28 324.021 140.698 324.933 142.256L324.933 142.256L324.934 142.257L324.934 142.257C327.861 147.255 331.63 153.691 331.703 158.286C331.764 162.067 332.77 166.556 333.586 169.465L345.447 176.87L344.7 178.067L330.909 169.456L320.89 172.603C314.438 174.413 300.435 177.842 296.039 177.076C291.643 176.31 299.541 174.325 304.04 173.428C297.563 174.241 284.815 175.467 285.643 173.86C286.677 171.851 310.371 168.548 320.974 168.781C324.186 168.851 326.338 168.83 327.831 168.816C328.722 168.807 329.378 168.801 329.885 168.817L319.015 162.031C315.109 163.976 306.901 167.607 299.984 169.163C290.738 171.243 275.938 172.709 285.411 168.299C292.319 165.084 308.286 162.827 317.338 161.888C315.525 161.946 312.842 162.158 308.992 162.656C298.474 164.016 274.563 163.252 273.321 161.365C272.327 159.855 285.133 159.717 291.66 159.837C287.091 159.424 279.026 158.29 283.316 157.061C287.606 155.832 301.894 157.751 308.502 158.864L318.051 161.429L309.974 156.386C309.949 156.384 309.922 156.378 309.893 156.368C309.862 156.38 309.828 156.391 309.789 156.4C309.416 156.491 308.101 156.267 306.205 155.943C301.797 155.189 294.251 153.9 288.099 154.794C279.302 156.074 273.004 152.478 275.103 152.207C275.746 152.124 276.548 152.14 277.579 152.161C279.916 152.209 283.429 152.28 288.924 151.273C294.387 150.273 301.389 152.082 305.404 153.533L298.072 148.955C293.375 149.307 286.903 149.502 281.544 148.816C272.141 147.614 257.723 143.929 268.132 143.01C274.12 142.482 285.209 144.448 293.96 146.388L283.827 140.062C280.383 139.015 275.311 137.73 268.576 136.533C254.017 133.945 250.962 130.125 251.637 129.778Z" fill="#2B6774"/>
<path fill-rule="evenodd" clip-rule="evenodd" d="M-131.755 382C-131.63 382 -131.525 381.904 -131.512 381.78C-126.911 338.619 -90.3816 305 -46 305C-12.8551 305 15.9104 323.75 30.2679 351.223C31.617 353.804 35.183 354.389 37.3265 352.417C49.0806 341.603 64.7692 335 82 335C102.461 335 120.747 344.31 132.853 358.926C134.489 360.901 137.527 361.077 139.381 359.304C151.232 347.965 167.303 341 185 341C197.043 341 208.332 344.225 218.051 349.859C220.188 351.098 222.981 350.323 224.174 348.16C235.412 327.795 257.095 314 282 314C318.451 314 348 343.549 348 380C348 380.664 347.99 381.326 347.971 381.985C347.97 381.993 347.977 382 347.985 382C347.993 382 348 382.007 348 382.015V473C348 475.209 346.209 477 344 477H-46H-128C-130.209 477 -132 475.209 -132 473V391V382.245C-132 382.11 -131.89 382 -131.755 382Z" fill="#124753"/>
<path fill-rule="evenodd" clip-rule="evenodd" d="M154.839 385.155C155.932 366.871 162.192 332.248 181.77 289.997C184.507 282.374 186.935 267.372 174.75 268.355C159.518 269.583 144.686 315.525 139.829 333.618C137.248 343.232 134.472 360.325 132.407 374.795C126.014 376.452 120.618 381.315 118.589 388.105C115.502 398.433 121.372 409.308 131.7 412.394C142.027 415.481 152.902 409.611 155.989 399.283C157.447 394.403 156.906 389.4 154.839 385.155Z" fill="url(#paint1_radial_130_4156)"/>
<path fill-rule="evenodd" clip-rule="evenodd" d="M148.198 182.431C144.505 176.628 133.85 173.411 130.263 193.244C128.461 203.207 129.981 216.918 131.572 231.262C133.462 248.307 135.451 266.246 132.082 279.852C127.071 282.578 123.669 287.889 123.669 293.995C123.669 302.881 130.872 310.084 139.758 310.084C148.643 310.084 155.846 302.881 155.846 293.995C155.846 292.643 155.679 291.329 155.365 290.074C158.182 260.843 160.064 205.965 148.198 182.431Z" fill="url(#paint2_radial_130_4156)"/>
<path fill-rule="evenodd" clip-rule="evenodd" d="M193.563 380.156C186.717 363.167 177.537 329.201 177.123 282.637C176.33 274.576 172.096 259.981 161.506 266.09C148.27 273.726 154.554 321.593 157.918 340.022C159.706 349.814 164.522 366.448 168.856 380.407C163.79 384.644 160.998 391.35 162.074 398.355C163.71 409.009 173.674 416.319 184.328 414.683C194.982 413.046 202.292 403.083 200.656 392.429C199.883 387.394 197.25 383.106 193.563 380.156Z" fill="url(#paint3_radial_130_4156)"/>
<path fill-rule="evenodd" clip-rule="evenodd" d="M194 186C194 172.06 189.967 155.98 189.792 142.041C189.771 140.372 189.671 138.68 189.488 136.973C187.045 114.187 170.741 97.2504 153.071 99.1446C135.401 101.039 123.058 121.046 125.5 143.833C126.367 151.92 128.98 159.27 132.78 165.303C136.562 171.306 138 178.905 138 186V262C138 277.464 150.536 290 166 290C181.464 290 194 277.464 194 262V186Z" fill="url(#paint4_linear_130_4156)"/>
<path d="M215.779 317.304C219.825 294.184 199.724 276.335 190.927 271.851L176.495 273.204C177.947 294.24 204.462 312.403 215.779 317.304Z" fill="url(#paint5_linear_130_4156)"/>
<path d="M181.672 328.168C197.199 310.513 187.245 280.9 182.082 272.477L171.361 271.541C161.613 290.283 174.577 318.074 181.672 328.168Z" fill="url(#paint6_linear_130_4156)"/>
<path d="M162.657 327.76C180.366 312.295 174.384 281.631 170.371 272.604L159.865 270.27C147.742 287.57 156.947 316.822 162.657 327.76Z" fill="url(#paint7_linear_130_4156)"/>
<path d="M111.21 318.832C106.708 295.755 130.241 275.206 138.948 270.538L148.677 275.138C147.64 296.237 122.428 313.695 111.21 318.832Z" fill="url(#paint8_linear_130_4156)"/>
<path d="M133.7 325.315C123.991 303.902 142.143 278.474 149.536 271.922L160.065 274.151C163.928 294.919 143.429 317.727 133.7 325.315Z" fill="url(#paint9_linear_130_4156)"/>
<rect x="137.429" y="269.26" width="56.9691" height="5.80241" rx="2.90121" fill="#684C2A"/>
<path fill-rule="evenodd" clip-rule="evenodd" d="M193.034 175.894C189.342 170.091 178.686 166.874 175.1 186.707C173.298 196.67 174.818 210.381 176.409 224.725C178.299 241.77 180.288 259.709 176.919 273.315C171.907 276.041 168.506 281.352 168.506 287.458C168.506 296.344 175.709 303.547 184.594 303.547C193.48 303.547 200.683 296.344 200.683 287.458C200.683 286.106 200.516 284.792 200.202 283.537C203.018 254.307 204.9 199.428 193.034 175.894Z" fill="url(#paint10_radial_130_4156)"/>
<path d="M153.342 145L143 147.197C143 151.736 145.433 159.937 151.719 158.912C156.748 158.092 154.896 149.296 153.342 145Z" fill="url(#paint11_radial_130_4156)"/>
<path d="M142.618 148L134 150.452C134 155.518 136.028 164.671 141.266 163.527C145.457 162.612 143.913 152.794 142.618 148Z" fill="url(#paint12_radial_130_4156)"/>
<path fill-rule="evenodd" clip-rule="evenodd" d="M-27.4944 374.258C-26.46 376.757 -22.9322 376.521 -22.0584 373.962C-18.1397 362.486 -12.1979 348.113 -4.71058 336.096C-2.86002 333.126 -0.0348091 335.187 -1.59623 338.318C-7.79337 350.748 -14.0427 365.68 -16.8245 377.289C-17.3236 379.371 -15.444 381.154 -13.3851 380.563C15.1019 372.397 51.6626 346.365 26.6796 289.209C26.2898 288.317 25.3082 287.807 24.3709 288.069C-3.61631 295.891 -48.7318 322.963 -27.4944 374.258Z" fill="#145969"/>
<path fill-rule="evenodd" clip-rule="evenodd" d="M-17.5395 416.273C-17.1349 418.947 -13.6644 419.592 -12.1754 417.335C-2.28184 402.336 12.5977 382.847 28.6529 369.228C31.3215 366.965 33.6775 369.977 31.3069 372.551C17.8444 387.169 2.07962 407.016 -6.10782 422.597C-7.10414 424.493 -5.74541 426.706 -3.60362 426.694C35.0871 426.479 91.396 406.462 78.7896 324.845C78.641 323.883 77.8306 323.134 76.8574 323.14C38.7396 323.385 -28.7103 342.452 -17.5395 416.273Z" fill="#26677B"/>
<path fill-rule="evenodd" clip-rule="evenodd" d="M328.052 236.744C337.107 242.577 351.584 255.453 355.134 270.515C355.61 272.532 360.825 273.975 361.846 272.173C362.301 271.37 363.293 271.045 364.102 271.49C374.166 277.03 389.686 293.57 383.691 322.518C383.171 325.031 384.225 327.617 386.791 327.554C387.81 327.53 389.003 327.384 390.371 327.064C395.004 325.979 400.13 328.784 399.601 333.513C396.851 358.073 381.676 388.138 336.06 371.668C337.394 358.698 337.919 343.357 337.968 327.954C338.051 301.989 336.216 276.169 335.013 259.664C334.913 258.287 334.277 256.553 332.9 256.653C331.523 256.753 331.273 258.347 331.374 259.724C332.569 276.128 333.051 302.123 332.968 327.938C332.921 342.854 332.421 357.455 331.224 369.793C331.192 369.78 331.16 369.766 331.128 369.753L327.71 368.511L324.292 369.911C274.828 390.42 258.666 359.095 255.819 333.67C255.29 328.942 260.416 326.137 265.049 327.222C266.417 327.542 267.61 327.687 268.629 327.712C271.195 327.774 272.249 325.189 271.729 322.675C265.734 293.728 281.254 277.188 291.318 271.648C292.127 271.203 293.119 271.528 293.574 272.331C294.595 274.133 299.811 272.69 300.286 270.673C303.836 255.611 318.313 242.735 327.369 236.901L327.834 236.604L328.052 236.744ZM313.055 306.432C313.055 313.798 308.489 319.769 302.856 319.769C297.223 319.769 292.656 313.798 292.656 306.432C292.656 299.065 297.223 293.094 302.856 293.094C308.489 293.094 313.055 299.065 313.055 306.432ZM313.055 346.445C315.655 346.445 317.763 343.635 317.763 340.168C317.763 336.702 315.655 333.892 313.055 333.892C310.456 333.892 308.348 336.702 308.348 340.168C308.348 343.635 310.456 346.445 313.055 346.445ZM361.699 329.969C361.699 335.602 358.186 340.168 353.853 340.168C349.52 340.168 346.007 335.602 346.007 329.969C346.007 324.336 349.52 319.769 353.853 319.769C358.186 319.769 361.699 324.336 361.699 329.969ZM320.901 333.892C322.634 333.892 324.039 331.96 324.039 329.577C324.039 327.193 322.634 325.261 320.901 325.261C319.168 325.261 317.763 327.193 317.763 329.577C317.763 331.96 319.168 333.892 320.901 333.892ZM371.898 312.316C371.898 316.432 369.615 319.769 366.799 319.769C363.982 319.769 361.699 316.432 361.699 312.316C361.699 308.199 363.982 304.862 366.799 304.862C369.615 304.862 371.898 308.199 371.898 312.316Z" fill="#0D5B4D"/>
<path fill-rule="evenodd" clip-rule="evenodd" d="M262.844 323.663C273.1 326.953 290.417 335.644 297.744 349.274C298.725 351.099 304.136 351.144 304.656 349.138C304.888 348.245 305.762 347.674 306.658 347.895C317.814 350.641 337.086 362.601 338.787 392.113C338.935 394.676 340.623 396.901 343.085 396.176C344.063 395.888 345.178 395.439 346.416 394.776C350.61 392.529 356.288 393.912 357 398.616C360.701 423.051 353.825 456.02 305.501 451.917C303.432 439.044 299.969 424.09 296.03 409.199C289.39 384.097 280.933 359.631 275.5 344C275.047 342.696 273.984 341.186 272.679 341.639C271.375 342.092 271.547 343.696 272 345C277.4 360.536 284.594 385.52 291.196 410.477C295.01 424.898 298.306 439.13 300.343 451.357C300.309 451.353 300.275 451.348 300.241 451.344L296.618 451.029L293.678 453.265C251.208 485.878 227.489 459.804 218.159 435.982C216.424 431.552 220.65 427.516 225.405 427.364C226.809 427.319 227.999 427.151 228.99 426.911C231.485 426.307 231.834 423.537 230.681 421.244C217.398 394.835 228.108 374.841 236.396 366.885C237.062 366.246 238.104 366.303 238.752 366.961C240.205 368.437 244.868 365.693 244.806 363.623C244.336 348.155 254.987 331.97 262.225 323.992L262.598 323.584L262.844 323.663ZM266.395 394.857C268.301 401.973 265.436 408.923 259.995 410.381C254.554 411.838 248.598 407.252 246.691 400.137C244.785 393.022 247.65 386.072 253.091 384.614C258.532 383.156 264.488 387.742 266.395 394.857ZM276.751 433.507C279.262 432.834 280.571 429.575 279.674 426.226C278.776 422.878 276.013 420.709 273.502 421.382C270.991 422.055 269.682 425.315 270.58 428.663C271.477 432.011 274.24 434.18 276.751 433.507ZM319.473 405.003C320.931 410.444 318.72 415.764 314.534 416.885C310.349 418.007 305.774 414.505 304.316 409.064C302.858 403.623 305.069 398.303 309.255 397.181C313.44 396.06 318.015 399.562 319.473 405.003ZM281.081 419.351C282.755 418.903 283.612 416.673 282.995 414.371C282.378 412.069 280.521 410.566 278.847 411.015C277.173 411.464 276.316 413.693 276.932 415.995C277.549 418.297 279.406 419.8 281.081 419.351ZM324.756 385.311C325.821 389.287 324.479 393.102 321.759 393.831C319.038 394.56 315.969 391.927 314.904 387.951C313.839 383.975 315.18 380.161 317.901 379.432C320.621 378.703 323.69 381.335 324.756 385.311Z" fill="#0B362F"/>
<g style="mix-blend-mode:overlay">
<path d="M235.023 116.337C235.805 118.451 238.795 118.451 239.577 116.337L240.388 114.146C240.634 113.481 241.158 112.957 241.823 112.711L244.015 111.9C246.128 111.118 246.128 108.128 244.015 107.346L241.823 106.535C241.158 106.289 240.634 105.765 240.388 105.1L239.577 102.908C238.795 100.794 235.805 100.794 235.023 102.908L234.212 105.1C233.966 105.765 233.442 106.289 232.777 106.535L230.585 107.346C228.472 108.128 228.472 111.118 230.585 111.9L232.777 112.711C233.442 112.957 233.966 113.481 234.212 114.146L235.023 116.337Z" fill="white"/>
<path d="M67.5785 101.015C68.4209 103.129 71.6406 103.129 72.483 101.015L73.3565 98.8228C73.6213 98.1582 74.1856 97.6342 74.9013 97.3883L77.2619 96.5772C79.5383 95.795 79.5383 92.8052 77.2619 92.023L74.9013 91.2119C74.1856 90.966 73.6213 90.442 73.3565 89.7774L72.483 87.5855C71.6406 85.4716 68.4209 85.4716 67.5785 87.5855L66.705 89.7774C66.4402 90.442 65.8759 90.966 65.1602 91.2119L62.7996 92.023C60.5232 92.8052 60.5232 95.795 62.7996 96.5772L65.1602 97.3883C65.8759 97.6342 66.4402 98.1582 66.705 98.8228L67.5785 101.015Z" fill="white"/>
<path d="M39.4862 226.153C40.3286 228.267 43.5484 228.267 44.3907 226.153L45.2642 223.961C45.529 223.297 46.0933 222.773 46.809 222.527L49.1696 221.716C51.446 220.933 51.446 217.944 49.1696 217.161L46.809 216.35C46.0933 216.104 45.529 215.58 45.2642 214.916L44.3907 212.724C43.5484 210.61 40.3286 210.61 39.4862 212.724L38.6127 214.916C38.3479 215.58 37.7836 216.104 37.0679 216.35L34.7073 217.161C32.4309 217.944 32.4309 220.933 34.7073 221.716L37.0679 222.527C37.7836 222.773 38.3479 223.297 38.6127 223.961L39.4862 226.153Z" fill="white"/>
<path d="M172.286 269.446C173.129 271.723 176.348 271.723 177.191 269.446L178.064 267.086C178.329 266.37 178.893 265.806 179.609 265.541L181.97 264.668C184.246 263.825 184.246 260.605 181.97 259.763L179.609 258.89C178.893 258.625 178.329 258.06 178.064 257.345L177.191 254.984C176.348 252.708 173.129 252.708 172.286 254.984L171.413 257.345C171.148 258.06 170.584 258.625 169.868 258.89L167.507 259.763C165.231 260.605 165.231 263.825 167.507 264.668L169.868 265.541C170.584 265.806 171.148 266.37 171.413 267.086L172.286 269.446Z" fill="white"/>
<path d="M119.932 400.97C120.775 403.246 123.994 403.246 124.837 400.97L125.71 398.609C125.975 397.893 126.539 397.329 127.255 397.064L129.616 396.191C131.892 395.348 131.892 392.129 129.616 391.286L127.255 390.413C126.539 390.148 125.975 389.584 125.71 388.868L124.837 386.507C123.994 384.231 120.775 384.231 119.932 386.507L119.059 388.868C118.794 389.584 118.23 390.148 117.514 390.413L115.153 391.286C112.877 392.129 112.877 395.348 115.153 396.191L117.514 397.064C118.23 397.329 118.794 397.893 119.059 398.609L119.932 400.97Z" fill="white"/>
<path d="M276.348 125.154C277.19 127.43 280.41 127.43 281.252 125.154L282.126 122.793C282.391 122.078 282.955 121.513 283.671 121.249L286.031 120.375C288.308 119.533 288.308 116.313 286.031 115.471L283.671 114.597C282.955 114.332 282.391 113.768 282.126 113.052L281.252 110.692C280.41 108.415 277.19 108.415 276.348 110.692L275.474 113.052C275.209 113.768 274.645 114.332 273.929 114.597L271.569 115.471C269.292 116.313 269.292 119.533 271.569 120.375L273.929 121.249C274.645 121.513 275.209 122.078 275.474 122.793L276.348 125.154Z" fill="white"/>
<circle cx="260.923" cy="131.969" r="2.55385" fill="white"/>
<circle cx="199.639" cy="251.362" r="1.91538" fill="white"/>
<circle cx="191.977" cy="299.885" r="1.91538" fill="white"/>
<ellipse cx="88.5462" cy="331.169" rx="1.91538" ry="2.55385" fill="white"/>
<circle cx="248.154" cy="88.5538" r="2.55385" fill="white"/>
<ellipse cx="78.9691" cy="145.377" rx="2.55385" ry="1.91538" fill="white"/>
</g>
<path d="M140.96 131.069L127.171 134.991C127.171 143.098 130.416 157.742 138.797 155.912C145.502 154.447 143.033 138.74 140.96 131.069Z" fill="white"/>
<path d="M136.651 133.069L127.171 135.736C127.171 141.249 129.402 151.207 135.164 149.962C139.774 148.966 138.076 138.285 136.651 133.069Z" fill="black"/>
<path d="M151.96 127.068L138.171 130.991C138.171 139.098 141.416 153.742 149.797 151.912C156.502 150.447 154.033 134.739 151.96 127.068Z" fill="white"/>
<path d="M148.513 129.069L138.171 131.893C138.171 137.73 140.604 148.274 146.89 146.956C151.919 145.901 150.067 134.592 148.513 129.069Z" fill="black"/>
<path d="M126 135.5L153.5 127" stroke="#253249" stroke-width="4" stroke-linecap="round"/>
</g>
<defs>
<linearGradient id="paint0_linear_130_4156" x1="163.5" y1="0" x2="163.5" y2="437" gradientUnits="userSpaceOnUse">
<stop stop-color="#1B4149"/>
<stop offset="1" stop-color="#05161A"/>
</linearGradient>
<radialGradient id="paint1_radial_130_4156" cx="0" cy="0" r="1" gradientUnits="userSpaceOnUse" gradientTransform="translate(153.339 339.992) rotate(106.64) scale(75.5672 19.5172)">
<stop stop-color="#556FBA"/>
<stop offset="1" stop-color="#445894"/>
</radialGradient>
<radialGradient id="paint2_radial_130_4156" cx="0" cy="0" r="1" gradientUnits="userSpaceOnUse" gradientTransform="translate(140.573 244.044) rotate(90) scale(66.04 16.9036)">
<stop stop-color="#556FBA"/>
<stop offset="1" stop-color="#445894"/>
</radialGradient>
<radialGradient id="paint3_radial_130_4156" cx="0" cy="0" r="1" gradientUnits="userSpaceOnUse" gradientTransform="translate(172.856 339.991) rotate(81.2685) scale(75.5672 19.5172)">
<stop stop-color="#556FBA"/>
<stop offset="1" stop-color="#445894"/>
</radialGradient>
<linearGradient id="paint4_linear_130_4156" x1="159.509" y1="99" x2="159.509" y2="274.007" gradientUnits="userSpaceOnUse">
<stop stop-color="#556FBA"/>
<stop offset="1" stop-color="#33498B"/>
</linearGradient>
<linearGradient id="paint5_linear_130_4156" x1="194.236" y1="271.54" x2="198.678" y2="318.908" gradientUnits="userSpaceOnUse">
<stop stop-color="#098451"/>
<stop offset="1" stop-color="#4CFFB4"/>
</linearGradient>
<linearGradient id="paint6_linear_130_4156" x1="187.194" y1="277.806" x2="166.244" y2="320.618" gradientUnits="userSpaceOnUse">
<stop stop-color="#098451"/>
<stop offset="1" stop-color="#4CFFB4"/>
</linearGradient>
<linearGradient id="paint7_linear_130_4156" x1="174.739" y1="278.558" x2="148.352" y2="318.25" gradientUnits="userSpaceOnUse">
<stop stop-color="#098451"/>
<stop offset="1" stop-color="#4CFFB4"/>
</linearGradient>
<linearGradient id="paint8_linear_130_4156" x1="130" y1="278" x2="112.19" y2="322.774" gradientUnits="userSpaceOnUse">
<stop stop-color="#098451"/>
<stop offset="1" stop-color="#4CFFB4"/>
</linearGradient>
<linearGradient id="paint9_linear_130_4156" x1="143.094" y1="275.53" x2="150.659" y2="322.589" gradientUnits="userSpaceOnUse">
<stop stop-color="#098451"/>
<stop offset="1" stop-color="#4CFFB4"/>
</linearGradient>
<radialGradient id="paint10_radial_130_4156" cx="0" cy="0" r="1" gradientUnits="userSpaceOnUse" gradientTransform="translate(185.409 237.507) rotate(90) scale(66.04 16.9036)">
<stop stop-color="#556FBA"/>
<stop offset="1" stop-color="#445894"/>
</radialGradient>
<radialGradient id="paint11_radial_130_4156" cx="0" cy="0" r="1" gradientUnits="userSpaceOnUse" gradientTransform="translate(144 149.5) rotate(62.2415) scale(10.7355 9.20182)">
<stop stop-color="#32406B"/>
<stop offset="1" stop-color="#32406B" stop-opacity="0"/>
</radialGradient>
<radialGradient id="paint12_radial_130_4156" cx="0" cy="0" r="1" gradientUnits="userSpaceOnUse" gradientTransform="translate(134.833 153.022) rotate(68.546) scale(11.392 8.065)">
<stop stop-color="#32406B"/>
<stop offset="1" stop-color="#32406B" stop-opacity="0"/>
</radialGradient>
<clipPath id="clip0_130_4156">
<rect width="327" height="437" rx="16" fill="white"/>
</clipPath>
</defs>
</svg>
