<svg width="327" height="437" viewBox="0 0 327 437" fill="none" xmlns="http://www.w3.org/2000/svg">
<g clip-path="url(#clip0_130_4157)">
<rect width="327" height="437" rx="16" fill="url(#paint0_linear_130_4157)"/>
<path fill-rule="evenodd" clip-rule="evenodd" d="M66.0927 73.5733C75.4512 64.5311 84.9869 54.0907 94.0961 42.302C82.2088 36.9312 71.3731 31.6069 69.8646 29.5156C71.9659 28.4937 82.4893 30.179 98.7689 36.0814C103.904 29.0466 108.865 21.5701 113.536 13.6614C101.523 8.2416 90.505 2.83987 88.983 0.729721C91.0423 -0.271767 101.458 1.35339 117.349 6.98948C130.571 -16.9365 141.026 -44.5672 145.819 -75.6639C90.3193 -108.107 -18.0361 -77.1302 -14.4474 24.0526C-54.7174 24.1041 -76 56.8939 -76 97.152C-76 136.015 -45.5923 167.781 -7.25731 169.982V373.73C-7.25731 379.402 -2.6566 384 3.01865 384C8.69391 384 13.2947 379.402 13.2947 373.73V168.278C26.8895 165.179 38.9682 159.012 48.5 149.5C58.4505 157.188 70.0882 170.007 80.66 191.734C89.6267 174.445 95.6038 169.409 97.4799 169.058C97.4799 171.71 88.5787 188.025 83.2803 197.356C84.2966 199.632 85.3006 201.997 86.2895 204.454C88.0988 209.909 91.3412 216.5 96.166 223.081C109.704 201.315 118.73 194.988 121.555 194.547C121.555 197.769 108.889 217.153 100.887 228.911C105.708 234.312 111.661 239.467 118.833 243.711C124.704 233.305 133.442 218.488 135.716 217.206C136.459 219.3 135.126 228.073 123.883 246.44C126.005 247.482 128.22 248.445 130.53 249.313C136.389 238.962 144.759 224.829 146.978 223.579C147.698 225.609 146.466 233.922 136.137 251.175C149.11 254.932 164.768 255.778 183.374 251.687C184.533 251.432 185.277 250.292 184.971 249.146C155.673 138.031 82.2422 135 48.9214 133.624H48.9212H48.921H48.9208H48.9206H48.9204H48.9201H48.9199C45.3701 133.478 42.2756 133.35 39.7383 133.112C57.7341 116.538 112.237 121.614 121.015 126.191C143.758 136.622 161.993 140.608 176.504 140.313C169.853 123.866 160.478 99.3724 161.106 95.4944C164.088 96.525 174.439 111.905 184.888 139.622C187.508 139.231 189.985 138.685 192.324 138.001C185.661 121.557 176.048 96.5103 176.684 92.585C179.59 93.5893 189.801 108.596 200.016 135.044C219.861 125.398 227.181 104.495 227.997 88.9321C228.019 88.5127 227.912 88.1075 227.688 87.7522C212.387 63.497 171.31 53.2238 152.552 51.1148C112.604 51.1148 85.1893 65.2263 68.1008 80.5919C67.5465 78.2053 66.875 75.8637 66.0927 73.5733Z" fill="#4C9C7F"/>
<path fill-rule="evenodd" clip-rule="evenodd" d="M-187 325V407C-187 409.209 -185.209 411 -183 411H-101H429H511C513.209 411 515 409.209 515 407V325V316.245C515 316.11 514.89 316 514.755 316C514.63 316 514.525 315.904 514.512 315.78C509.911 272.619 473.382 239 429 239C402.912 239 379.538 250.616 363.766 268.957C362.353 270.601 359.914 270.926 358.1 269.739C347.726 262.948 335.324 259 322 259C307.43 259 293.963 263.721 283.045 271.717C281.199 273.068 278.589 272.768 277.099 271.032C264.995 256.932 247.041 248 227 248C202.095 248 180.412 261.795 169.174 282.16C167.981 284.323 165.188 285.098 163.051 283.859C153.332 278.225 142.043 275 130 275C112.303 275 96.2323 281.965 84.3807 293.304C82.5272 295.077 79.4889 294.901 77.8525 292.926C65.7465 278.31 47.4606 269 27 269C9.76917 269 -5.91945 275.603 -17.6735 286.417C-19.817 288.389 -23.383 287.804 -24.7321 285.223C-39.0896 257.75 -67.8551 239 -101 239C-145.382 239 -181.911 272.619 -186.512 315.78C-186.525 315.904 -186.63 316 -186.755 316C-186.89 316 -187 316.11 -187 316.245V325Z" fill="#489B7D"/>
<path fill-rule="evenodd" clip-rule="evenodd" d="M-136.755 382C-136.63 382 -136.525 381.904 -136.512 381.78C-131.911 338.619 -95.3816 305 -51 305C-17.8551 305 10.9104 323.75 25.2679 351.223C26.617 353.804 30.183 354.389 32.3265 352.417C44.0806 341.603 59.7692 335 77 335C97.4606 335 115.747 344.31 127.853 358.926C129.489 360.901 132.527 361.077 134.381 359.304C146.232 347.965 162.303 341 180 341C192.043 341 203.332 344.225 213.051 349.859C215.188 351.098 217.981 350.323 219.174 348.16C230.412 327.795 252.095 314 277 314C313.451 314 343 343.549 343 380C343 380.664 342.99 381.326 342.971 381.985C342.97 381.993 342.977 382 342.985 382C342.993 382 343 382.007 343 382.015V473C343 475.209 341.209 477 339 477H-51H-133C-135.209 477 -137 475.209 -137 473V391V382.245C-137 382.11 -136.89 382 -136.755 382Z" fill="#0D5B4D"/>
<path d="M85.9139 186.294C79.0698 206.724 73.6202 236.718 69.9693 262.368C66.8194 284.498 64.8456 312.426 85.3392 321.846C89.589 323.8 94.6512 325 100.641 325C158.934 318.137 115.892 246.017 135.076 210.483C146.999 188.398 138.757 174.571 129.341 167.704C124.5 164.174 118.102 163.4 112.174 164.407C99.9072 166.491 89.8278 174.61 85.9139 186.294Z" fill="url(#paint1_radial_130_4157)"/>
<path fill-rule="evenodd" clip-rule="evenodd" d="M172.092 328.452L160.599 359.098C153.341 378.454 148.994 404 122.524 404C104.562 404 90 389.456 90 371.514C90 356.044 102.908 350.308 106.836 337.344L115.339 309.28C121.074 290.353 143.282 282.082 160.025 292.638C172.036 300.211 177.075 315.166 172.092 328.452Z" fill="url(#paint2_radial_130_4157)"/>
<path fill-rule="evenodd" clip-rule="evenodd" d="M198.268 297.15L219.179 322.549C232.387 338.59 252.446 355.211 239.156 378.228C230.138 393.849 210.165 399.2 194.544 390.182C181.076 382.406 182.562 368.298 173.247 358.366L153.083 336.865C139.483 322.364 143.432 298.894 161.029 289.642C173.652 283.004 189.202 286.139 198.268 297.15Z" fill="url(#paint3_radial_130_4157)"/>
<path d="M231.027 183.878C231.84 146.497 199.961 114 162.396 114C124.483 114 95.5432 140.374 95.5432 178.133C95.5432 191.224 93.8665 204.571 92.1347 217.547C89.1831 239.664 88.6047 266.225 94.8962 289.406C101.648 314.284 112.993 326.664 138.218 332.406C212.57 349.332 247.928 280.691 234.029 206.004C232.674 198.721 231.632 191.325 231.027 183.878Z" fill="url(#paint4_linear_130_4157)"/>
<path d="M217.311 262C148.366 257.815 112.467 222.925 99.7076 200.422C98.3248 197.983 94.4237 198.199 93.6187 200.885C79.5467 247.828 81.717 290.904 94.9202 326.35C95.5451 328.028 97.5078 328.747 99.0879 327.905L118.849 317.376C120.079 316.72 121.598 316.998 122.516 318.047L137.067 334.663C138.186 335.941 140.14 336.036 141.378 334.874L153.747 323.261C154.886 322.191 156.656 322.176 157.814 323.225L171.041 335.207C172.169 336.229 173.885 336.244 175.03 335.241L189.727 322.379C190.452 321.744 191.439 321.496 192.378 321.713L221.966 328.552C223.955 329.012 225.812 327.394 225.629 325.36L220.179 264.745C220.045 263.254 218.805 262.091 217.311 262Z" fill="#684C2A"/>
<path fill-rule="evenodd" clip-rule="evenodd" d="M209 326.032C208.104 324.963 207.113 323.951 206.027 323.007C209.891 312.806 207.193 300.855 198.401 293.338C187.161 283.727 170.218 285.002 160.559 296.185C154.04 303.732 152.504 313.863 155.649 322.607C156.199 322.499 156.79 322.645 157.233 323.046L172.084 336.526C172.771 337.15 173.819 337.159 174.517 336.547L190.503 322.529C190.945 322.141 191.548 321.99 192.121 322.123L209 326.032ZM91.9296 318.029C96.4538 317.037 100.705 314.632 103.957 310.867C111.896 301.676 110.888 287.844 101.732 279.885C104.924 271.458 102.695 261.586 95.4319 255.376C92.2006 252.613 88.3987 250.939 84.4786 250.32C82.8025 274.734 85.5864 297.521 91.9296 318.029ZM114.849 220C109.926 224.045 106.789 230.165 106.789 237.014C106.789 249.133 116.614 258.969 128.772 259.068C131.871 267.529 140.029 273.571 149.605 273.571C161.039 273.571 170.45 264.959 171.645 253.899C145.873 245.651 127.32 232.701 114.849 220Z" fill="url(#paint5_radial_130_4157)"/>
<ellipse cx="135" cy="166.5" rx="13" ry="19.5" fill="white"/>
<ellipse cx="115.5" cy="164.825" rx="11.5" ry="17.825" fill="white"/>
<ellipse cx="131" cy="166" rx="9" ry="14" fill="#171719"/>
<ellipse cx="112.05" cy="164.825" rx="8.05" ry="13.225" fill="#171719"/>
<ellipse cx="139.688" cy="138.706" rx="10.0565" ry="6.58875" transform="rotate(-15 139.688 138.706)" fill="#FF9D2B"/>
<ellipse cx="113.79" cy="137.649" rx="9.03984" ry="5.92265" transform="rotate(30 113.79 137.649)" fill="#FF9D2B"/>
<path d="M235.332 186.294C242.082 206.724 247.457 236.718 251.058 262.368C254.164 284.498 256.111 312.426 235.898 321.846C231.707 323.8 226.714 325 220.807 325C163.312 318.137 205.764 246.017 186.843 210.483C175.083 188.398 183.212 174.571 192.499 167.704C197.274 164.174 203.584 163.4 209.431 164.407C221.53 166.491 231.471 174.61 235.332 186.294Z" fill="url(#paint6_radial_130_4157)"/>
<path fill-rule="evenodd" clip-rule="evenodd" d="M-27.4944 374.258C-26.46 376.757 -22.9322 376.521 -22.0584 373.962C-18.1397 362.486 -12.1979 348.113 -4.71058 336.096C-2.86002 333.126 -0.0348091 335.187 -1.59623 338.318C-7.79337 350.748 -14.0427 365.68 -16.8245 377.289C-17.3236 379.371 -15.444 381.154 -13.3851 380.563C15.1019 372.397 51.6626 346.365 26.6796 289.209C26.2898 288.317 25.3082 287.807 24.3709 288.069C-3.61631 295.891 -48.7318 322.963 -27.4944 374.258Z" fill="#0B362F"/>
<path fill-rule="evenodd" clip-rule="evenodd" d="M-17.5395 416.273C-17.1349 418.947 -13.6644 419.592 -12.1754 417.335C-2.28184 402.336 12.5977 382.847 28.6529 369.228C31.3215 366.965 33.6775 369.977 31.3069 372.551C17.8444 387.169 2.07962 407.016 -6.10782 422.597C-7.10414 424.493 -5.74541 426.706 -3.60362 426.694C35.0871 426.479 91.396 406.462 78.7896 324.845C78.641 323.883 77.8306 323.134 76.8574 323.14C38.7396 323.385 -28.7103 342.452 -17.5395 416.273Z" fill="#0B362F"/>
<path fill-rule="evenodd" clip-rule="evenodd" d="M71.6167 189.894C72.5843 173.283 66.2048 144.408 33.142 148.317C32.9971 148.334 32.9593 148.509 33.0761 148.597C36.638 151.266 41.1644 155.01 45.4675 159.275C47.9531 161.738 45.8716 163.256 43.2847 160.899C40.5016 158.364 37.6576 155.994 34.9977 154.092C33.2556 152.846 30.9504 153.998 30.8979 156.139C30.5073 172.047 37.813 193.459 69.7836 191.687C70.7553 191.633 71.5601 190.866 71.6167 189.894Z" fill="#4C9C7F"/>
<path fill-rule="evenodd" clip-rule="evenodd" d="M32.3844 189.264C37.2036 179.983 40.7464 162.616 21.8048 155.984C21.5193 155.884 21.3227 156.195 21.4624 156.463C22.0343 157.562 22.647 158.81 23.2601 160.159C24.5356 162.966 22.6844 163.091 21.2374 160.369C20.3517 158.703 18.227 158.975 17.4459 160.693C13.405 169.58 12.5911 182.782 29.9963 190.106C30.8933 190.483 31.9359 190.128 32.3844 189.264Z" fill="#4C9C7F"/>
<rect x="274.631" y="196.585" width="11.8506" height="109.887" rx="5.92528" transform="rotate(31.1834 274.631 196.585)" fill="url(#paint7_linear_130_4157)"/>
<path d="M267.573 231.671C233.002 210.892 249.685 188.355 262.348 179.683C267.489 171.587 286.281 170.817 293.248 180.096C301.373 190.919 313.662 218.918 316.375 232.451C319.089 245.983 310.787 257.645 267.573 231.671Z" fill="url(#paint8_linear_130_4157)"/>
<path d="M292.336 179.106C290.383 174.754 283.945 173.723 281.212 173.457C264.476 190.081 269.444 221.559 275.642 236.545L288.429 242.569C272.038 211.463 294.778 184.545 292.336 179.106Z" fill="url(#paint9_radial_130_4157)"/>
<g filter="url(#filter0_d_130_4157)">
<path d="M309.021 210.452C299.003 199.116 263.611 203.918 247.301 207.723C246.059 210.447 249.439 214.636 250.95 217.101C270.135 209.759 297.685 210.78 312.322 219.053L309.021 210.452Z" fill="url(#paint10_radial_130_4157)"/>
</g>
<path d="M297.28 225.605L297.257 225.372" stroke="#636363" stroke-width="2.15465" stroke-linecap="round"/>
<path d="M286.771 217.999L286.748 217.766" stroke="#636363" stroke-width="2.15465" stroke-linecap="round"/>
<path d="M302.476 218.045L302.452 217.812" stroke="#636363" stroke-width="2.15465" stroke-linecap="round"/>
<path d="M298.393 198.966L298.369 198.733" stroke="#636363" stroke-width="2.15465" stroke-linecap="round"/>
<path d="M261.304 201.611L261.28 201.378" stroke="#636363" stroke-width="2.15465" stroke-linecap="round"/>
<path d="M263.135 219.833L263.112 219.6" stroke="#636363" stroke-width="2.15465" stroke-linecap="round"/>
<path d="M266.604 189.71L266.581 189.477" stroke="#636363" stroke-width="2.15465" stroke-linecap="round"/>
<path d="M274.048 177.592L274.025 177.359" stroke="#636363" stroke-width="2.15465" stroke-linecap="round"/>
<path d="M258.029 190.571L258.005 190.338" stroke="#636363" stroke-width="2.15465" stroke-linecap="round"/>
<path d="M303.876 231.98L303.853 231.747" stroke="#636363" stroke-width="2.15465" stroke-linecap="round"/>
<path d="M289.941 233.38L289.918 233.147" stroke="#636363" stroke-width="2.15465" stroke-linecap="round"/>
<path fill-rule="evenodd" clip-rule="evenodd" d="M328.052 236.744C337.107 242.577 351.584 255.453 355.134 270.515C355.61 272.532 360.825 273.975 361.846 272.173C362.301 271.37 363.293 271.045 364.102 271.49C374.166 277.03 389.686 293.57 383.691 322.518C383.171 325.031 384.225 327.617 386.791 327.554C387.81 327.53 389.003 327.384 390.371 327.064C395.004 325.979 400.13 328.784 399.601 333.513C396.851 358.073 381.676 388.138 336.06 371.668C337.394 358.698 337.919 343.357 337.968 327.954C338.051 301.989 336.216 276.169 335.013 259.664C334.913 258.287 334.277 256.553 332.9 256.653C331.523 256.753 331.273 258.347 331.374 259.724C332.569 276.128 333.051 302.123 332.968 327.938C332.921 342.854 332.421 357.455 331.224 369.793C331.192 369.78 331.16 369.766 331.128 369.753L327.71 368.511L324.292 369.911C274.828 390.42 258.666 359.095 255.819 333.67C255.29 328.942 260.416 326.137 265.049 327.222C266.417 327.542 267.61 327.687 268.629 327.712C271.195 327.774 272.249 325.189 271.729 322.675C265.734 293.728 281.254 277.188 291.318 271.648C292.127 271.203 293.119 271.528 293.574 272.331C294.595 274.133 299.811 272.69 300.286 270.673C303.836 255.611 318.313 242.735 327.369 236.901L327.834 236.604L328.052 236.744ZM313.055 306.432C313.055 313.798 308.489 319.769 302.856 319.769C297.223 319.769 292.656 313.798 292.656 306.432C292.656 299.065 297.223 293.094 302.856 293.094C308.489 293.094 313.055 299.065 313.055 306.432ZM313.055 346.445C315.655 346.445 317.763 343.635 317.763 340.168C317.763 336.702 315.655 333.892 313.055 333.892C310.456 333.892 308.348 336.702 308.348 340.168C308.348 343.635 310.456 346.445 313.055 346.445ZM361.699 329.969C361.699 335.602 358.186 340.168 353.853 340.168C349.52 340.168 346.007 335.602 346.007 329.969C346.007 324.336 349.52 319.769 353.853 319.769C358.186 319.769 361.699 324.336 361.699 329.969ZM320.901 333.892C322.634 333.892 324.039 331.96 324.039 329.577C324.039 327.193 322.634 325.261 320.901 325.261C319.168 325.261 317.763 327.193 317.763 329.577C317.763 331.96 319.168 333.892 320.901 333.892ZM371.898 312.316C371.898 316.432 369.615 319.769 366.799 319.769C363.982 319.769 361.699 316.432 361.699 312.316C361.699 308.199 363.982 304.862 366.799 304.862C369.615 304.862 371.898 308.199 371.898 312.316Z" fill="#0D5B4D"/>
<path fill-rule="evenodd" clip-rule="evenodd" d="M262.844 323.663C273.1 326.953 290.417 335.644 297.744 349.274C298.725 351.099 304.136 351.144 304.656 349.138C304.888 348.245 305.762 347.674 306.658 347.895C317.814 350.641 337.086 362.601 338.787 392.113C338.935 394.676 340.623 396.901 343.085 396.176C344.063 395.888 345.178 395.439 346.416 394.776C350.61 392.529 356.288 393.912 357 398.616C360.701 423.051 353.825 456.02 305.501 451.917C303.432 439.044 299.969 424.09 296.03 409.199C289.39 384.097 280.933 359.631 275.5 344C275.047 342.696 273.984 341.186 272.679 341.639C271.375 342.092 271.547 343.696 272 345C277.4 360.536 284.594 385.52 291.196 410.477C295.01 424.898 298.306 439.13 300.343 451.357C300.309 451.353 300.275 451.348 300.241 451.344L296.618 451.029L293.678 453.265C251.208 485.878 227.489 459.804 218.159 435.982C216.424 431.552 220.65 427.516 225.405 427.364C226.809 427.319 227.999 427.151 228.99 426.911C231.485 426.307 231.834 423.537 230.681 421.244C217.398 394.835 228.108 374.841 236.396 366.885C237.062 366.246 238.104 366.303 238.752 366.961C240.205 368.437 244.868 365.693 244.806 363.623C244.336 348.155 254.987 331.97 262.225 323.992L262.598 323.584L262.844 323.663ZM266.395 394.857C268.301 401.973 265.436 408.923 259.995 410.381C254.554 411.838 248.598 407.252 246.691 400.137C244.785 393.022 247.65 386.072 253.091 384.614C258.532 383.156 264.488 387.742 266.395 394.857ZM276.751 433.507C279.262 432.834 280.571 429.575 279.674 426.226C278.776 422.878 276.013 420.709 273.502 421.382C270.991 422.055 269.682 425.315 270.58 428.663C271.477 432.011 274.24 434.18 276.751 433.507ZM319.473 405.003C320.931 410.444 318.72 415.764 314.534 416.885C310.349 418.007 305.774 414.505 304.316 409.064C302.858 403.623 305.069 398.303 309.255 397.181C313.44 396.06 318.015 399.562 319.473 405.003ZM281.081 419.351C282.755 418.903 283.612 416.673 282.995 414.371C282.378 412.069 280.521 410.566 278.847 411.015C277.173 411.464 276.316 413.693 276.932 415.995C277.549 418.297 279.406 419.8 281.081 419.351ZM324.756 385.311C325.821 389.287 324.479 393.102 321.759 393.831C319.038 394.56 315.969 391.927 314.904 387.951C313.839 383.975 315.18 380.161 317.901 379.432C320.621 378.703 323.69 381.335 324.756 385.311Z" fill="#0B362F"/>
<g style="mix-blend-mode:soft-light">
<path d="M262.023 106.337C262.805 108.451 265.795 108.451 266.577 106.337L267.388 104.146C267.634 103.481 268.158 102.957 268.823 102.711L271.015 101.9C273.128 101.118 273.128 98.1279 271.015 97.3458L268.823 96.5347C268.158 96.2887 267.634 95.7648 267.388 95.1002L266.577 92.9082C265.795 90.7944 262.805 90.7944 262.023 92.9082L261.212 95.1002C260.966 95.7648 260.442 96.2887 259.777 96.5347L257.585 97.3458C255.472 98.128 255.472 101.118 257.585 101.9L259.777 102.711C260.442 102.957 260.966 103.481 261.212 104.146L262.023 106.337Z" fill="white"/>
<path d="M43.4862 234.153C44.3286 236.267 47.5484 236.267 48.3907 234.153L49.2642 231.961C49.529 231.296 50.0933 230.772 50.809 230.526L53.1696 229.715C55.446 228.933 55.446 225.943 53.1696 225.161L50.809 224.35C50.0933 224.104 49.529 223.58 49.2642 222.916L48.3907 220.724C47.5484 218.61 44.3286 218.61 43.4862 220.724L42.6127 222.916C42.3479 223.58 41.7836 224.104 41.0679 224.35L38.7073 225.161C36.4309 225.943 36.4309 228.933 38.7073 229.715L41.0679 230.526C41.7836 230.772 42.3479 231.296 42.6127 231.961L43.4862 234.153Z" fill="white"/>
<path d="M202.286 277.446C203.129 279.723 206.348 279.723 207.191 277.446L208.064 275.086C208.329 274.37 208.893 273.806 209.609 273.541L211.97 272.668C214.246 271.825 214.246 268.605 211.97 267.763L209.609 266.89C208.893 266.625 208.329 266.06 208.064 265.345L207.191 262.984C206.348 260.708 203.129 260.708 202.286 262.984L201.413 265.345C201.148 266.06 200.584 266.625 199.868 266.89L197.507 267.763C195.231 268.605 195.231 271.825 197.507 272.668L199.868 273.541C200.584 273.806 201.148 274.37 201.413 275.086L202.286 277.446Z" fill="white"/>
<path d="M161.486 409.17C162.329 411.446 165.548 411.446 166.391 409.17L167.264 406.809C167.529 406.093 168.093 405.529 168.809 405.264L171.17 404.391C173.446 403.548 173.446 400.329 171.17 399.486L168.809 398.613C168.093 398.348 167.529 397.784 167.264 397.068L166.391 394.707C165.548 392.431 162.329 392.431 161.486 394.707L160.613 397.068C160.348 397.784 159.784 398.348 159.068 398.613L156.707 399.486C154.431 400.329 154.431 403.548 156.707 404.391L159.068 405.264C159.784 405.529 160.348 406.093 160.613 406.809L161.486 409.17Z" fill="white"/>
<path d="M306.348 133.154C307.19 135.43 310.41 135.43 311.252 133.154L312.126 130.793C312.391 130.078 312.955 129.513 313.671 129.249L316.031 128.375C318.308 127.533 318.308 124.313 316.031 123.471L313.671 122.597C312.955 122.332 312.391 121.768 312.126 121.052L311.252 118.692C310.41 116.415 307.19 116.415 306.348 118.692L305.474 121.052C305.209 121.768 304.645 122.332 303.929 122.597L301.569 123.471C299.292 124.313 299.292 127.533 301.569 128.375L303.929 129.249C304.645 129.513 305.209 130.078 305.474 130.793L306.348 133.154Z" fill="white"/>
<circle cx="290.923" cy="139.969" r="2.55385" fill="white"/>
<circle cx="57.5538" cy="205.554" r="2.55385" fill="white"/>
<circle cx="229.639" cy="259.362" r="1.91538" fill="white"/>
<circle cx="221.977" cy="307.885" r="1.91538" fill="white"/>
<ellipse cx="118.546" cy="339.169" rx="1.91538" ry="2.55385" fill="white"/>
<circle cx="275.154" cy="78.5538" r="2.55385" fill="white"/>
</g>
<circle cx="145" cy="191" r="12" fill="url(#paint11_radial_130_4157)"/>
</g>
<defs>
<filter id="filter0_d_130_4157" x="241.645" y="200.152" width="76.063" height="26.4427" filterUnits="userSpaceOnUse" color-interpolation-filters="sRGB">
<feFlood flood-opacity="0" result="BackgroundImageFix"/>
<feColorMatrix in="SourceAlpha" type="matrix" values="0 0 0 0 0 0 0 0 0 0 0 0 0 0 0 0 0 0 127 0" result="hardAlpha"/>
<feOffset dy="2.15465"/>
<feGaussianBlur stdDeviation="2.69331"/>
<feComposite in2="hardAlpha" operator="out"/>
<feColorMatrix type="matrix" values="0 0 0 0 0.407843 0 0 0 0 0.298039 0 0 0 0 0.164706 0 0 0 0.2 0"/>
<feBlend mode="normal" in2="BackgroundImageFix" result="effect1_dropShadow_130_4157"/>
<feBlend mode="normal" in="SourceGraphic" in2="effect1_dropShadow_130_4157" result="shape"/>
</filter>
<linearGradient id="paint0_linear_130_4157" x1="163.5" y1="0" x2="163.5" y2="437" gradientUnits="userSpaceOnUse">
<stop stop-color="#9DE9BE"/>
<stop offset="1" stop-color="#B2E599"/>
</linearGradient>
<radialGradient id="paint1_radial_130_4157" cx="0" cy="0" r="1" gradientUnits="userSpaceOnUse" gradientTransform="translate(104.5 244.5) rotate(90) scale(80.5 54.8741)">
<stop stop-color="#FAFF92"/>
<stop offset="1" stop-color="#FFA43B"/>
</radialGradient>
<radialGradient id="paint2_radial_130_4157" cx="0" cy="0" r="1" gradientUnits="userSpaceOnUse" gradientTransform="translate(132 346) rotate(90) scale(58 63.1429)">
<stop stop-color="#FAFF92"/>
<stop offset="1" stop-color="#FFA43B"/>
</radialGradient>
<radialGradient id="paint3_radial_130_4157" cx="0" cy="0" r="1" gradientUnits="userSpaceOnUse" gradientTransform="translate(193.417 340.834) rotate(30) scale(58.3083 63.4025)">
<stop stop-color="#FAFF92"/>
<stop offset="1" stop-color="#FFA43B"/>
</radialGradient>
<linearGradient id="paint4_linear_130_4157" x1="163.5" y1="114" x2="163.5" y2="335" gradientUnits="userSpaceOnUse">
<stop stop-color="#FFEE6C"/>
<stop offset="1" stop-color="#FFA43B"/>
</linearGradient>
<radialGradient id="paint5_radial_130_4157" cx="0" cy="0" r="1" gradientUnits="userSpaceOnUse" gradientTransform="translate(146.5 278.5) rotate(90) scale(58.5 62.5)">
<stop stop-color="#A5773E"/>
<stop offset="1" stop-color="#684C2A"/>
</radialGradient>
<radialGradient id="paint6_radial_130_4157" cx="0" cy="0" r="1" gradientUnits="userSpaceOnUse" gradientTransform="translate(217 244.5) rotate(90) scale(80.5 54.1224)">
<stop stop-color="#FAFF92"/>
<stop offset="1" stop-color="#FFA43B"/>
</radialGradient>
<linearGradient id="paint7_linear_130_4157" x1="274.631" y1="255.925" x2="303.552" y2="264.303" gradientUnits="userSpaceOnUse">
<stop stop-color="#5E421C"/>
<stop offset="1" stop-color="#C4893B"/>
</linearGradient>
<linearGradient id="paint8_linear_130_4157" x1="277.157" y1="173.255" x2="284.809" y2="249.382" gradientUnits="userSpaceOnUse">
<stop stop-color="#D0D0D0"/>
<stop offset="1" stop-color="#666666"/>
</linearGradient>
<radialGradient id="paint9_radial_130_4157" cx="0" cy="0" r="1" gradientUnits="userSpaceOnUse" gradientTransform="translate(278.889 204.21) rotate(78.5576) scale(38.7736 13.0475)">
<stop stop-color="#C79656"/>
<stop offset="1" stop-color="#AF854F"/>
</radialGradient>
<radialGradient id="paint10_radial_130_4157" cx="0" cy="0" r="1" gradientUnits="userSpaceOnUse" gradientTransform="translate(279.32 208.498) rotate(1.64314) scale(32.8614 32.8614)">
<stop stop-color="#C79656"/>
<stop offset="1" stop-color="#A57D49"/>
</radialGradient>
<radialGradient id="paint11_radial_130_4157" cx="0" cy="0" r="1" gradientUnits="userSpaceOnUse" gradientTransform="translate(138 181.5) rotate(45) scale(17.6777)">
<stop stop-color="#FFB45D"/>
<stop offset="1" stop-color="#FFB45D" stop-opacity="0"/>
</radialGradient>
<clipPath id="clip0_130_4157">
<rect width="327" height="437" rx="16" fill="white"/>
</clipPath>
</defs>
</svg>
